<svg width="32" height="32" viewBox="0 0 32 32" fill="none" xmlns="http://www.w3.org/2000/svg">
<circle cx="16" cy="16" r="15.625" fill="#FFE604" stroke="black" stroke-width="0.75"/>
<circle cx="16" cy="16" r="15.625" fill="#FFE604" stroke="black" stroke-width="0.75"/>
<circle cx="16" cy="16" r="15.625" fill="#FFE604" stroke="black" stroke-width="0.75"/>
<circle cx="16" cy="16" r="15.625" fill="#FFE604" stroke="black" stroke-width="0.75"/>
<ellipse cx="23.68" cy="19.68" rx="5.44" ry="5.28" fill="#BDAA00"/>
<ellipse cx="15.84" cy="25.92" rx="3.04" ry="2.88" fill="#BDAA00"/>
<ellipse cx="8.16001" cy="16.96" rx="6.24" ry="6.08" fill="#BDAA00"/>
<circle cx="13.44" cy="6.08004" r="4.16" fill="#BDAA00"/>
<circle cx="23.52" cy="9.76001" r="4" fill="#BDAA00"/>
<circle cx="15.84" cy="25.76" r="1.12" transform="rotate(-90 15.84 25.76)" fill="white"/>
<path d="M24.96 19.6799C24.96 20.2985 24.4586 20.7999 23.84 20.7999C23.2214 20.7999 22.72 20.2985 22.72 19.6799C22.72 19.0614 23.2214 18.5599 23.84 18.5599C24.4586 18.5599 24.96 19.0614 24.96 19.6799Z" fill="white"/>
<circle cx="8.16001" cy="17.12" r="1.12" fill="white"/>
<path d="M24.64 9.91993C24.64 10.5385 24.1386 11.0399 23.52 11.0399C22.9014 11.0399 22.4 10.5385 22.4 9.91993C22.4 9.30137 22.9014 8.79993 23.52 8.79993C24.1386 8.79993 24.64 9.30137 24.64 9.91993Z" fill="white"/>
<circle cx="13.6" cy="6.24" r="1.12" fill="white"/>
</svg>
